<mxfile host="app.diagrams.net" agent="Mozilla/5.0 (Macintosh; Intel Mac OS X 10_15_7) AppleWebKit/537.36 (KHTML, like Gecko) Chrome/129.0.0.0 Safari/537.36" version="24.7.17">
  <diagram name="Page-1" id="KYQmAPHARTZ8IQ_ZdIAm">
    <mxGraphModel dx="1100" dy="1166" grid="0" gridSize="10" guides="1" tooltips="1" connect="1" arrows="1" fold="1" page="0" pageScale="1" pageWidth="850" pageHeight="1100" math="0" shadow="0">
      <root>
        <mxCell id="0" />
        <mxCell id="1" parent="0" />
        <mxCell id="tVokdg6Vgvb6zkplared-3" value="" style="rounded=0;whiteSpace=wrap;html=1;" vertex="1" parent="1">
          <mxGeometry x="-143" y="-15" width="221" height="145" as="geometry" />
        </mxCell>
        <mxCell id="tVokdg6Vgvb6zkplared-4" value="" style="rounded=0;whiteSpace=wrap;html=1;" vertex="1" parent="1">
          <mxGeometry x="163" y="-15" width="285" height="149" as="geometry" />
        </mxCell>
        <mxCell id="tVokdg6Vgvb6zkplared-5" value="" style="rounded=0;whiteSpace=wrap;html=1;" vertex="1" parent="1">
          <mxGeometry x="250" y="310" width="120" height="60" as="geometry" />
        </mxCell>
        <mxCell id="tVokdg6Vgvb6zkplared-6" value="" style="rounded=0;whiteSpace=wrap;html=1;" vertex="1" parent="1">
          <mxGeometry x="183" y="432" width="120" height="60" as="geometry" />
        </mxCell>
        <mxCell id="tVokdg6Vgvb6zkplared-7" value="Frontend: ReactJS" style="text;html=1;align=center;verticalAlign=middle;whiteSpace=wrap;rounded=0;fontSize=16;" vertex="1" parent="1">
          <mxGeometry x="-100" y="-48" width="142" height="30" as="geometry" />
        </mxCell>
        <mxCell id="tVokdg6Vgvb6zkplared-8" value="Backend: NodeJS" style="text;html=1;align=center;verticalAlign=middle;whiteSpace=wrap;rounded=0;fontSize=16;" vertex="1" parent="1">
          <mxGeometry x="234.5" y="-48" width="142" height="30" as="geometry" />
        </mxCell>
        <mxCell id="tVokdg6Vgvb6zkplared-9" value="" style="ellipse;whiteSpace=wrap;html=1;" vertex="1" parent="1">
          <mxGeometry x="290" y="10" width="154" height="122" as="geometry" />
        </mxCell>
        <mxCell id="tVokdg6Vgvb6zkplared-10" value="Langchain" style="text;html=1;align=center;verticalAlign=middle;whiteSpace=wrap;rounded=0;fontSize=16;" vertex="1" parent="1">
          <mxGeometry x="299" y="56" width="142" height="30" as="geometry" />
        </mxCell>
      </root>
    </mxGraphModel>
  </diagram>
</mxfile>
